<?xml version="1.0" standalone="no"?>
<!DOCTYPE svg PUBLIC "-//W3C//DTD SVG 20010904//EN"
 "http://www.w3.org/TR/2001/REC-SVG-20010904/DTD/svg10.dtd">
<svg version="1.0" xmlns="http://www.w3.org/2000/svg"
 width="1079.000000pt" height="449.000000pt" viewBox="0 0 1079.000000 449.000000"
 preserveAspectRatio="xMidYMid meet">

<g transform="translate(0.000000,449.000000) scale(0.100000,-0.100000)"
fill="#000000" stroke="none">
<path d="M8108 3920 c-22 -12 -48 -38 -63 -63 -21 -37 -25 -56 -25 -125 l0
-82 -3800 0 -3800 0 0 -1310 0 -1310 4023 -1 c2212 -1 4225 -3 4472 -5 248 -3
566 -2 708 2 l257 7 0 33 0 34 -87 0 -88 0 3 279 3 279 -108 74 c-59 41 -179
123 -265 181 l-158 107 -62 0 c-35 -1 -75 -6 -90 -13 -14 -7 -137 -91 -272
-187 l-247 -175 3 -273 3 -272 -213 0 -212 0 2 1356 3 1356 33 29 33 30 402
-3 402 -3 34 -24 c42 -30 70 -92 71 -153 0 -39 -3 -48 -17 -48 -28 0 -125 -49
-156 -78 -37 -34 -74 -107 -79 -152 l-3 -35 284 -3 c163 -1 289 2 294 7 5 5 3
30 -7 63 -27 93 -118 175 -214 194 -31 6 -32 8 -32 63 0 99 -60 191 -147 228
-25 10 -120 13 -440 13 -385 -1 -410 -2 -445 -20z m-108 -1580 l0 -1240 -3755
0 -3755 0 0 1240 0 1240 3755 0 3755 0 0 -1240z m1275 -874 c63 -27 75 -61 75
-223 l0 -143 -34 0 -34 0 -4 126 c-3 124 -3 126 -31 150 -26 22 -36 24 -138
24 -109 0 -111 0 -140 -29 -29 -29 -29 -30 -29 -150 l0 -121 -36 0 -35 0 3
154 c3 169 8 183 73 212 43 19 284 19 330 0z"/>
<path d="M4712 3065 c-266 -74 -297 -416 -49 -547 59 -32 183 -32 244 0 110
57 168 149 167 267 0 61 -4 79 -34 134 -66 123 -198 182 -328 146z m121 -139
c93 -39 115 -175 42 -254 -31 -34 -38 -37 -89 -37 -47 0 -59 4 -86 30 -77 74
-58 221 34 261 40 17 59 17 99 0z"/>
<path d="M1040 2786 l0 -286 80 0 80 0 0 85 0 85 33 0 c30 0 35 -6 78 -83 l46
-82 88 -3 c102 -3 100 -13 25 114 l-51 85 27 32 c81 96 69 221 -30 301 l-38
31 -169 3 -169 3 0 -285z m278 138 c15 -10 22 -25 22 -49 0 -49 -21 -65 -86
-65 l-54 0 0 65 0 65 48 0 c27 0 57 -7 70 -16z"/>
<path d="M1911 3048 c-5 -13 -47 -133 -94 -268 -47 -135 -88 -253 -92 -262 -6
-16 1 -18 74 -18 l80 0 16 55 16 55 79 0 79 0 16 -55 16 -55 80 0 c44 0 79 4
77 9 -1 4 -46 133 -98 285 l-95 276 -73 0 c-66 0 -73 -2 -81 -22z m107 -247
c12 -43 22 -81 22 -85 0 -3 -22 -6 -50 -6 -27 0 -50 3 -50 7 0 17 45 163 51
163 3 0 16 -35 27 -79z"/>
<path d="M2390 3062 c0 -6 22 -65 49 -133 26 -68 75 -193 107 -277 l59 -152
69 2 69 3 36 92 c20 51 39 93 42 93 3 0 23 -43 43 -95 l38 -95 67 0 67 0 99
253 c54 138 104 267 112 285 l14 33 -87 -3 -87 -3 -56 -180 c-32 -99 -60 -187
-62 -195 -3 -8 -15 13 -27 48 l-21 62 45 125 c24 69 44 130 44 135 0 6 -31 10
-69 10 l-68 0 -24 -80 c-12 -44 -26 -80 -31 -80 -4 0 -8 5 -8 11 0 7 -9 43
-20 80 l-21 69 -69 0 c-39 0 -70 -1 -70 -3 0 -2 20 -63 45 -137 l45 -135 -16
-50 c-9 -27 -19 -54 -22 -59 -2 -4 -32 79 -66 185 l-62 194 -82 3 c-46 2 -82
-1 -82 -6z"/>
<path d="M3840 2785 l0 -285 80 0 80 0 0 85 0 85 53 0 c105 0 173 38 208 115
47 102 -5 237 -104 274 -16 6 -93 11 -173 11 l-144 0 0 -285z m262 138 c21
-19 25 -82 6 -101 -7 -7 -34 -12 -60 -12 l-48 0 0 65 0 65 42 0 c24 0 49 -7
60 -17z"/>
<path d="M5354 2785 l111 -285 67 0 66 0 38 95 c20 52 41 95 44 95 4 0 23 -42
43 -92 l35 -93 69 -3 68 -3 57 148 c32 81 82 210 112 286 l55 138 -87 -3 -87
-3 -56 -180 c-30 -99 -58 -186 -60 -194 -3 -8 -15 12 -28 45 l-22 60 46 129
c25 72 45 133 45 138 0 4 -31 7 -69 7 l-69 0 -21 -69 c-12 -38 -21 -74 -21
-80 0 -22 -18 -10 -25 17 -3 15 -13 51 -21 80 l-15 52 -70 0 c-38 0 -69 -4
-69 -9 0 -5 20 -66 44 -135 44 -127 44 -127 29 -174 -9 -26 -19 -51 -23 -55
-4 -5 -26 52 -49 125 -23 73 -50 158 -60 188 l-18 55 -85 3 -86 3 112 -286z"/>
<path d="M6340 2785 l0 -285 205 0 205 0 0 65 0 64 -127 3 -128 3 0 45 0 45
103 3 102 3 0 59 0 59 -102 3 -103 3 0 40 0 40 123 3 122 3 0 64 0 65 -200 0
-200 0 0 -285z"/>
<path d="M7000 2786 l0 -286 80 0 80 0 0 85 0 85 33 0 c30 0 35 -6 78 -83 l46
-82 87 -3 c47 -1 86 1 86 5 0 4 -25 51 -55 103 l-54 95 24 25 c82 86 69 227
-28 304 l-39 31 -169 3 -169 3 0 -285z m278 138 c24 -17 30 -61 12 -95 -9 -15
-22 -19 -70 -19 l-60 0 0 58 c0 32 3 62 7 65 12 13 89 7 111 -9z"/>
<path d="M3450 2334 c-115 -31 -178 -105 -187 -219 -5 -52 -2 -72 16 -108 28
-57 73 -87 198 -131 132 -46 131 -45 137 -63 19 -50 -86 -59 -192 -17 -37 15
-71 30 -77 35 -21 20 -37 5 -75 -71 -22 -44 -40 -84 -40 -89 0 -15 148 -68
229 -81 165 -27 303 20 356 121 21 40 28 119 16 167 -13 48 -60 106 -105 129
-17 9 -75 31 -129 49 -109 37 -127 47 -127 75 0 48 98 45 207 -5 60 -28 56
-31 106 70 l36 72 -57 25 c-68 31 -172 57 -222 56 -19 0 -60 -7 -90 -15z"/>
<path d="M7052 2340 c-277 -58 -398 -369 -236 -607 19 -28 52 -63 73 -77 116
-80 278 -91 374 -24 l27 19 0 -30 0 -31 85 0 85 0 0 200 0 200 -150 0 -150 0
0 -75 0 -74 63 -3 62 -3 -43 -29 c-44 -30 -118 -44 -166 -32 -40 10 -93 63
-112 112 -33 87 2 211 72 254 66 42 175 19 229 -47 l20 -24 73 56 c39 31 72
61 72 66 0 24 -102 108 -154 128 -65 24 -164 33 -224 21z"/>
<path d="M993 2308 c8 -18 74 -187 148 -375 l133 -343 86 0 85 0 50 130 c27
72 52 130 56 130 3 0 28 -57 56 -127 l51 -128 85 -3 c62 -2 86 1 90 10 3 7 67
171 142 363 76 193 139 356 142 363 4 9 -21 12 -105 12 l-111 0 -50 -157 c-27
-87 -62 -200 -78 -250 -15 -51 -31 -93 -35 -93 -3 0 -17 33 -31 73 l-24 72 58
168 c33 93 59 173 59 178 0 6 -39 9 -92 7 l-91 -3 -30 -107 c-17 -59 -33 -105
-37 -103 -4 2 -20 52 -36 110 l-28 105 -93 0 c-51 0 -93 -1 -93 -3 0 -1 27
-82 59 -180 l60 -177 -21 -63 c-11 -34 -24 -66 -29 -71 -4 -4 -35 79 -69 185
-34 107 -69 219 -79 249 l-18 55 -112 3 -112 3 14 -33z"/>
<path d="M2540 2337 c0 -1 -27 -81 -61 -177 -33 -96 -92 -264 -129 -372 l-69
-198 104 0 104 0 22 75 22 75 102 0 102 0 22 -75 22 -75 104 0 104 0 -29 83
c-61 178 -219 633 -225 650 -6 14 -21 17 -101 17 -52 0 -94 -1 -94 -3z m130
-347 c16 -57 27 -107 24 -111 -7 -12 -111 -11 -119 1 -3 6 6 49 20 98 14 48
29 95 32 105 2 10 7 17 9 14 3 -2 18 -51 34 -107z"/>
<path d="M4160 1965 l0 -375 105 0 105 0 0 145 0 145 125 0 125 0 0 -145 0
-145 100 0 100 0 0 375 0 375 -100 0 -100 0 0 -140 0 -140 -125 0 -125 0 0
140 0 140 -105 0 -105 0 0 -375z"/>
<path d="M5190 1965 l0 -375 100 0 100 0 0 375 0 375 -100 0 -100 0 0 -375z"/>
<path d="M5750 1965 l0 -375 105 0 105 0 2 182 3 182 145 -179 145 -180 83 -3
82 -3 0 376 0 375 -100 0 -100 0 0 -185 c0 -102 -3 -185 -8 -185 -4 0 -73 83
-152 185 l-145 185 -82 0 -83 0 0 -375z"/>
<path d="M8794 3306 c-3 -8 -4 -25 -2 -38 l3 -23 313 -3 313 -2 -3 37 -3 38
-308 3 c-260 2 -308 0 -313 -12z"/>
<path d="M8795 3152 c-3 -3 -5 -20 -5 -39 0 -31 2 -33 35 -33 33 0 35 2 35 34
0 30 -3 34 -30 38 -17 3 -32 2 -35 0z"/>
<path d="M8925 3130 c-9 -39 3 -53 41 -48 25 2 29 8 32 36 2 21 -1 32 -10 32
-7 0 -23 3 -35 6 -17 5 -22 0 -28 -26z"/>
<path d="M9074 3146 c-3 -8 -4 -25 -2 -38 2 -18 10 -24 36 -26 33 -3 33 -3 30
35 -3 33 -7 38 -31 41 -17 2 -29 -2 -33 -12z"/>
<path d="M9233 3153 c-24 -5 -27 -13 -17 -51 5 -19 12 -23 38 -20 28 3 31 6
31 38 0 36 -9 42 -52 33z"/>
<path d="M9377 3152 c-25 -3 -28 -7 -25 -35 3 -29 6 -32 38 -32 33 0 35 2 32
30 -5 37 -10 42 -45 37z"/>
<path d="M8777 3003 c-4 -3 -7 -19 -7 -35 0 -25 3 -28 34 -28 29 0 34 4 39 27
3 16 3 31 0 35 -5 10 -57 10 -66 1z"/>
<path d="M8920 2975 c0 -33 2 -35 35 -35 33 0 35 2 35 35 0 33 -2 35 -35 35
-33 0 -35 -2 -35 -35z"/>
<path d="M9070 2975 c0 -33 2 -35 35 -35 33 0 35 2 35 35 0 33 -2 35 -35 35
-33 0 -35 -2 -35 -35z"/>
<path d="M9220 2975 c0 -33 2 -35 35 -35 33 0 35 2 35 35 0 33 -2 35 -35 35
-33 0 -35 -2 -35 -35z"/>
<path d="M9370 2975 c0 -33 2 -35 35 -35 33 0 35 2 35 35 0 33 -2 35 -35 35
-33 0 -35 -2 -35 -35z"/>
<path d="M8760 2858 c0 -7 -3 -23 -6 -35 -5 -17 0 -22 26 -28 23 -5 35 -3 41
6 14 22 10 56 -7 63 -26 10 -54 7 -54 -6z"/>
<path d="M8917 2863 c-12 -12 -7 -63 6 -63 6 0 22 -3 35 -6 20 -6 22 -3 22 35
0 38 -2 41 -28 41 -16 0 -32 -3 -35 -7z"/>
<path d="M9074 2856 c-3 -8 -4 -25 -2 -38 2 -18 9 -23 33 -23 27 0 30 3 33 38
3 35 2 37 -28 37 -17 0 -33 -6 -36 -14z"/>
<path d="M9237 2863 c-10 -10 -8 -61 3 -68 5 -3 21 -3 35 1 21 5 25 12 25 40
0 31 -3 34 -28 34 -16 0 -32 -3 -35 -7z"/>
<path d="M9397 2863 c-15 -4 -17 -11 -11 -36 8 -41 7 -40 43 -32 31 7 38 24
25 59 -6 16 -22 18 -57 9z"/>
<path d="M8745 2722 c-3 -3 -5 -20 -5 -39 0 -31 2 -33 35 -33 33 0 35 2 35 34
0 30 -3 34 -30 38 -17 3 -32 2 -35 0z"/>
<path d="M9427 2723 c-25 -4 -28 -8 -25 -36 3 -27 8 -33 32 -35 16 -2 32 0 36
5 9 9 1 74 -9 72 -3 -1 -19 -4 -34 -6z"/>
<path d="M8902 2688 c3 -28 7 -34 32 -36 31 -4 46 10 46 46 0 19 -5 22 -41 22
-39 0 -40 -1 -37 -32z"/>
<path d="M9070 2685 c0 -33 2 -35 35 -35 33 0 35 2 35 35 0 33 -2 35 -35 35
-33 0 -35 -2 -35 -35z"/>
<path d="M9238 2715 c-2 -3 -3 -19 0 -35 4 -28 8 -31 36 -28 27 3 31 7 34 36
3 30 2 32 -31 32 -18 0 -36 -2 -39 -5z"/>
<path d="M8720 2545 c0 -33 2 -35 34 -35 30 0 34 3 38 30 6 37 3 40 -39 40
-31 0 -33 -2 -33 -35z"/>
<path d="M8900 2545 c0 -33 2 -35 35 -35 33 0 35 2 35 35 0 33 -2 35 -35 35
-33 0 -35 -2 -35 -35z"/>
<path d="M9070 2545 c0 -33 2 -35 35 -35 33 0 35 2 35 35 0 33 -2 35 -35 35
-33 0 -35 -2 -35 -35z"/>
<path d="M9247 2573 c-4 -3 -7 -19 -7 -35 0 -25 3 -28 34 -28 41 0 46 6 39 43
-4 21 -11 27 -32 27 -15 0 -31 -3 -34 -7z"/>
<path d="M9420 2545 c0 -33 2 -35 35 -35 33 0 35 2 35 35 0 33 -2 35 -35 35
-33 0 -35 -2 -35 -35z"/>
<path d="M8707 2419 c-4 -15 1 -23 21 -30 32 -12 52 -5 52 20 0 34 -64 44 -73
10z"/>
<path d="M8894 2425 c-11 -27 4 -45 36 -45 25 0 30 4 30 24 0 16 -7 26 -22 30
-33 9 -38 8 -44 -9z"/>
<path d="M9272 2433 c-17 -3 -22 -10 -20 -26 2 -17 11 -23 36 -25 30 -3 32 -1
32 27 0 31 -3 33 -48 24z"/>
<path d="M9441 2431 c-8 -5 -11 -16 -6 -30 6 -19 12 -21 38 -15 40 8 40 8 32
33 -7 22 -39 28 -64 12z"/>
<path d="M9072 2408 c2 -18 11 -24 36 -26 29 -3 32 -1 32 22 0 23 -4 26 -36
26 -31 0 -35 -3 -32 -22z"/>
<path d="M9033 2250 c-12 -5 -126 -79 -253 -165 -258 -175 -270 -188 -270
-290 0 -30 2 -55 4 -55 3 0 116 79 251 175 135 97 257 180 271 185 14 6 52 10
85 10 l59 0 202 -137 c112 -75 227 -154 257 -175 30 -21 59 -38 64 -38 17 0
-1 119 -22 149 -11 15 -128 100 -260 189 l-241 162 -62 -1 c-35 0 -73 -4 -85
-9z"/>
</g>
</svg>
